<svg width="42" height="61" viewBox="0 0 42 61" fill="none" xmlns="http://www.w3.org/2000/svg">
<path d="M20.3115 0.151894C19.7982 0.366337 19.6355 0.640347 19.0721 2.1891C18.8093 2.90391 17.9705 4.83389 17.2194 6.45413C16.4683 8.08627 15.7172 9.89712 15.5294 10.4928C14.7658 13.0304 15.5044 14.7459 18.0832 16.4257C19.8984 17.6171 20.1237 17.8196 20.1237 18.3438C20.1237 18.6059 20.1112 18.8084 20.0987 18.8084C20.0736 18.8084 19.0471 18.6178 17.8078 18.3914C15.2415 17.9149 14.7532 17.8911 14.0522 18.2008C13.4138 18.4748 12.6626 19.2611 12.4999 19.8449C12.4248 20.0951 12.3622 20.9171 12.3622 21.6676C12.3622 25.3013 11.536 28.1247 9.6582 30.9959C8.7819 32.3421 8.68175 33.1403 9.24508 34.2125C9.69575 35.0465 11.0728 35.7017 12.0242 35.523L12.3622 35.4635V42.3256V49.1878H7.06686C1.82159 49.1878 1.77151 49.1878 1.2207 49.4499C0.206694 49.9383 -0.168862 50.8199 0.06899 52.1304C0.24425 53.155 0.644843 53.8936 1.40847 54.6084C2.44751 55.6091 3.53663 55.9785 5.46448 55.9785L6.41589 55.9904L7.54256 57.8489C8.80694 59.9218 9.37027 60.5175 10.3968 60.8034C11.3482 61.0655 30.6518 61.0655 31.6032 60.8034C32.6297 60.5175 33.1931 59.9218 34.4574 57.8489L35.5841 55.9904L36.5355 55.9785C38.4634 55.9785 39.5525 55.6091 40.5915 54.6084C41.3552 53.8936 41.7557 53.155 41.931 52.1304C42.1689 50.8199 41.7933 49.9383 40.7793 49.4499C40.2535 49.1997 40.0783 49.1878 37.6371 49.1878C35.2085 49.1878 35.0333 49.1997 34.7203 49.438C34.2947 49.7596 34.2697 50.3553 34.6828 50.7127C34.9582 50.9629 35.0834 50.9748 37.4869 50.9748C39.9155 50.9748 40.0157 50.9867 40.0908 51.2131C40.3412 51.9755 39.6401 53.2622 38.6887 53.7983L38.0878 54.1319L29.9883 54.1676L21.8763 54.2034V52.5831V50.9748H26.5082H31.1525L31.478 50.6651C31.7284 50.4268 31.7785 50.2957 31.7159 49.986C31.6032 49.4022 31.2402 49.1878 30.3764 49.1878H29.6378V47.1744V45.161L30.126 45.2206C31.3528 45.3755 32.7174 44.4462 33.0178 43.2191C33.2181 42.4448 33.0428 41.7538 32.3919 40.7888C31.6908 39.7166 30.9272 38.2274 30.5642 37.1909C29.9132 35.3443 29.7505 34.2959 29.6754 31.4724C29.6128 29.0897 29.5877 28.8038 29.3624 28.5894C29.0369 28.2439 28.3484 28.2558 27.9979 28.6013C27.7475 28.8634 27.735 28.9468 27.7976 31.4963C27.8602 34.4746 28.0855 35.8447 28.8366 37.8938C29.3499 39.2877 29.7755 40.1455 30.6768 41.5393C31.2151 42.3971 31.2902 42.5758 31.1901 42.8498C31.0399 43.243 30.5266 43.5289 30.126 43.4336C29.9508 43.3859 29.5627 43.0166 29.1621 42.5162C28.4986 41.6704 28.073 41.3845 27.6724 41.5274C26.9088 41.7776 26.7836 42.5162 27.3845 43.231L27.76 43.6838V46.4358V49.1878H24.8182H21.8763V48.7112C21.8763 48.1037 21.5383 47.7582 20.9499 47.7582C20.637 47.7582 20.4492 47.8416 20.2614 48.0679C20.011 48.3658 19.9985 48.5325 19.9985 51.5228V54.6561L19.673 54.8943C19.2474 55.2041 18.997 55.2041 18.5714 54.8943L18.2459 54.6561V50.0694C18.2459 46.2809 18.2084 45.4231 18.0581 45.1491C17.7577 44.5892 17.0817 44.482 16.6435 44.9347C16.3807 45.1968 16.3681 45.3278 16.3681 47.1982V49.1878H15.3041H14.24V41.3368C14.24 33.5811 14.24 33.4858 13.9771 33.1761C13.6141 32.7353 13.0257 32.7472 12.5375 33.2356C12.3372 33.4382 12.0492 33.6526 11.8865 33.7122C11.4984 33.8551 10.9101 33.5573 10.8099 33.1642C10.7223 32.8187 10.7849 32.6519 11.6612 31.2937C13.3136 28.7204 14.24 25.3013 14.24 21.7749C14.24 20.4167 14.2525 20.3333 14.5529 20.0593C14.7157 19.8925 14.9661 19.7615 15.0912 19.7615C15.4167 19.7615 27.4846 22.0012 27.6348 22.0846C27.7099 22.1323 27.76 22.8352 27.76 23.6691C27.7725 25.2774 27.8351 25.4919 28.3985 25.7063C28.774 25.8374 29.4375 25.611 29.5627 25.3013C29.6879 24.9677 29.6503 21.9536 29.5001 21.5842C29.3248 21.1196 28.6614 20.5001 28.2107 20.3691C27.9979 20.2976 26.6459 20.0355 25.1937 19.7615C23.7541 19.4994 22.4396 19.2492 22.2894 19.2254C22.0265 19.1658 22.0015 19.0943 22.0015 18.4629V17.76L22.665 17.2954C23.0155 17.0333 23.6915 16.5806 24.1422 16.2708C26.5082 14.6983 27.2092 12.9589 26.4706 10.4928C26.2828 9.89712 25.5317 8.08627 24.7806 6.45413C24.0295 4.83389 23.1907 2.90391 22.9279 2.1891C22.3645 0.61652 22.2018 0.354424 21.6635 0.151894C21.1627 -0.0506325 20.7997 -0.0506325 20.3115 0.151894ZM21.4256 3.48767C21.6009 3.97612 22.3019 5.57253 22.9904 7.03789C23.6665 8.50325 24.3425 10.0401 24.5052 10.469C24.8933 11.5531 24.9684 12.5538 24.693 13.1495C24.5553 13.4593 24.4551 13.5665 24.405 13.4473C24.38 13.352 23.9419 12.3513 23.4411 11.2433C22.9404 10.1235 22.4396 8.93213 22.3144 8.58664C22.1517 8.12201 21.989 7.88374 21.701 7.71696C20.8623 7.2285 20.0236 7.58591 19.6856 8.58664C19.5604 8.93213 19.0596 10.1235 18.5589 11.2433C18.0581 12.3513 17.62 13.352 17.595 13.4473C17.5449 13.5665 17.4447 13.4593 17.307 13.1495C17.0316 12.5538 17.1067 11.5531 17.4823 10.4809C17.6325 10.0639 18.321 8.51516 19.0096 7.0498C19.6856 5.57253 20.3991 3.97612 20.5744 3.48767C20.7621 2.99922 20.9499 2.60607 21 2.60607C21.0501 2.60607 21.2379 2.99922 21.4256 3.48767ZM21.1252 10.5881C21.1252 10.6596 21.4006 11.2791 21.7261 11.9939C22.5147 13.638 22.7902 14.46 22.7025 14.8174C22.665 14.9723 22.2894 15.3178 21.8137 15.6513L21 16.1994L20.1863 15.6513C19.6981 15.3178 19.335 14.9842 19.2975 14.8055C19.2098 14.46 19.4227 13.8405 20.2864 11.9343C20.8623 10.6358 21.1252 10.2188 21.1252 10.5881ZM16.3431 52.5474L16.3055 54.1319L15.4042 54.1676C14.603 54.2034 14.4653 54.2391 14.24 54.5131C13.927 54.8943 13.9145 55.2756 14.2275 55.633C14.4528 55.8951 14.578 55.9189 15.7547 55.9666C16.969 56.0023 17.0817 56.0261 17.4447 56.3359C18.321 57.0626 19.8107 57.0626 20.7747 56.324L21.2379 55.9785L27.3219 56.0023L33.3934 56.038L32.6047 57.3485C32.0914 58.1825 31.6533 58.7543 31.3904 58.933L30.9773 59.1951H21H11.0227L10.6096 58.9211C10.3467 58.7543 9.90857 58.1825 9.39531 57.3485L8.60664 56.038L9.74583 55.9785C10.7473 55.9189 10.9101 55.8832 11.1229 55.633C11.4483 55.2637 11.4233 54.7633 11.0853 54.4535C10.8099 54.2153 10.6597 54.2034 7.35478 54.1676L3.91218 54.1319L3.31129 53.7983C2.59774 53.3932 2.02188 52.607 1.8967 51.8564C1.74648 50.9033 1.12055 50.9748 9.16997 50.9748H16.3807L16.3431 52.5474Z" fill="#F2F2F2"/>
<path d="M30.8271 4.33357C30.6519 4.48844 30.5142 4.76245 30.5142 4.92924C30.5142 5.34621 31.0399 5.82275 31.4906 5.82275C31.7034 5.82275 31.9538 5.71553 32.1165 5.54874C32.9553 4.69097 31.6909 3.49963 30.8271 4.33357Z" fill="#F2F2F2"/>
<path d="M28.9619 6.19204C28.2985 6.6805 28.7366 7.72888 29.6004 7.72888C30.001 7.72888 30.5142 7.22852 30.5142 6.83537C30.5142 6.44223 30.001 5.94186 29.6004 5.94186C29.4377 5.94186 29.1497 6.04908 28.9619 6.19204Z" fill="#F2F2F2"/>
<path d="M32.8804 6.06098C32.7677 6.12055 32.605 6.33499 32.5174 6.5256C32.0792 7.52634 33.6816 8.22923 34.2074 7.25233C34.633 6.46604 33.6941 5.60827 32.8804 6.06098Z" fill="#F2F2F2"/>
<path d="M30.8269 8.14586C30.4513 8.50326 30.4263 8.90832 30.7768 9.32529C31.29 9.94479 32.3917 9.56356 32.3917 8.75345C32.3917 8.34839 31.8784 7.84802 31.4528 7.84802C31.2775 7.84802 30.9896 7.97907 30.8269 8.14586Z" fill="#F2F2F2"/>
<path d="M8.75688 12.53C7.91814 13.3878 9.18251 14.5792 10.0463 13.7452C10.2216 13.5903 10.3593 13.3163 10.3593 13.1495C10.3593 12.7326 9.83348 12.256 9.38281 12.256C9.16999 12.256 8.91962 12.3632 8.75688 12.53Z" fill="#F2F2F2"/>
<path d="M6.96701 14.2813C6.60398 14.4838 6.42872 15.0556 6.62901 15.4369C6.96701 16.104 7.99354 16.1159 8.29398 15.4488C8.65702 14.6148 7.7682 13.8405 6.96701 14.2813Z" fill="#F2F2F2"/>
<path d="M10.6721 14.46C10.2965 14.8174 10.2715 15.2225 10.622 15.6394C11.1478 16.2828 12.2369 15.8658 12.2369 15.0319C12.2369 14.7698 12.1367 14.5791 11.9114 14.4124C11.4733 14.0788 11.0476 14.1026 10.6721 14.46Z" fill="#F2F2F2"/>
<path d="M8.75698 16.3423C8.19364 16.9142 8.55668 17.8553 9.34535 17.8553C9.90868 17.8553 10.2842 17.4979 10.2842 16.9618C10.2842 16.1517 9.32031 15.7705 8.75698 16.3423Z" fill="#F2F2F2"/>
<path d="M22.1763 28.1248C21.663 28.3631 21.6255 28.6371 21.6255 32.9855C21.6255 36.6072 21.6005 37.1671 21.4252 37.322C21.325 37.4292 21.1247 37.5126 20.9996 37.5126C20.5364 37.5126 20.3736 37.1909 20.3736 36.2617C20.3736 35.7732 20.311 35.249 20.2359 35.0823C20.0607 34.7368 19.4973 34.4747 19.1218 34.5938C18.596 34.7487 18.4708 35.1418 18.5209 36.4881C18.5584 37.6437 18.5835 37.7628 18.934 38.2393C19.948 39.5975 22.0511 39.5975 23.0651 38.2393L23.4407 37.7271L23.4782 33.1523L23.5158 28.5775L23.2028 28.2797C22.8648 27.958 22.6019 27.9223 22.1763 28.1248Z" fill="#F2F2F2"/>
</svg>
