<svg width="42" height="44" viewBox="0 0 42 44" fill="none" xmlns="http://www.w3.org/2000/svg">
<path d="M20.1904 0.0895348C20.139 0.126873 20.1005 0.350906 20.1005 0.587387C20.1005 1.09768 20.1776 1.09768 17.6588 0.624725C15.3585 0.189106 14.7031 0.164211 13.9963 0.487816C12.7627 1.03545 12.39 1.81957 12.39 3.82342C12.39 7.53241 11.6446 10.2581 9.84553 13.1332C9.07448 14.3903 8.99737 14.577 8.94597 15.3113C8.89457 16.3195 9.24154 17.0538 10.064 17.6139C10.5009 17.9126 10.7579 17.9873 11.5033 18.0246L12.39 18.0744L12.3643 25.0692L12.3257 32.0516L6.79989 32.1138C0.631504 32.1885 0.88852 32.1387 0.284533 33.0971C0.0403676 33.458 -0.0110355 33.7069 0.00181525 34.4164C0.0275168 35.7108 0.425892 36.6069 1.3897 37.5404C2.40491 38.5236 3.17596 38.8099 5.05218 38.9219L6.42721 38.9966L7.49383 40.7889C8.77891 42.9421 9.01022 43.2283 9.87123 43.664L10.5266 44H21H31.4734L32.1288 43.664C32.9898 43.2283 33.2211 42.9421 34.5062 40.7889L35.5728 38.9966L36.9479 38.9219C38.8241 38.8099 39.5951 38.5236 40.6103 37.5404C41.5741 36.6069 41.9725 35.7108 41.9982 34.4039C42.0111 33.6447 41.9597 33.458 41.6641 33.0224C41.0858 32.176 40.8159 32.1138 37.6804 32.1138C35.1616 32.1138 34.9046 32.1387 34.7118 32.3378C34.4163 32.649 34.442 33.3086 34.7504 33.6074C34.9945 33.8438 35.1744 33.8563 37.5133 33.8563C40.3276 33.8563 40.3405 33.8563 40.1606 34.7898C40.0321 35.4245 39.7493 35.9473 39.2867 36.3704C38.49 37.1048 38.7084 37.0923 29.9313 37.0923H21.8996V35.4743V33.8563H26.513C30.8052 33.8563 31.1393 33.8438 31.422 33.6323C31.769 33.346 31.8075 32.7237 31.4863 32.3752C31.3064 32.1885 31.0493 32.1138 30.4582 32.0889L29.6743 32.0516L29.6358 29.9606L29.6101 27.8572L29.9956 27.9443C30.9979 28.1559 32.3858 27.434 32.8356 26.4632C33.3496 25.3804 33.144 24.5714 31.8846 22.6173C30.8694 21.0242 30.0213 18.5598 29.7514 16.3693C29.6743 15.747 29.6101 14.3654 29.6101 13.2826C29.6101 11.3659 29.5972 11.3161 29.2888 11.0174C28.8904 10.6191 28.5306 10.6191 28.1065 11.0298L27.7724 11.3534L27.8495 14.0418C27.9009 16.0332 27.9909 17.0663 28.1836 17.9748C28.6591 20.2401 29.5072 22.331 30.6767 24.1482C31.3578 25.2061 31.4092 25.5297 30.9594 25.9529C30.4068 26.5005 29.9442 26.3138 29.1474 25.2435C28.5306 24.3971 28.3635 24.2727 27.8752 24.2727C27.0013 24.2727 26.7829 25.119 27.4254 25.9405L27.8109 26.4383V29.2761V32.1138H24.8553H21.8996V31.616C21.8996 30.9812 21.5526 30.6203 20.9615 30.6203C20.139 30.6203 20.1262 30.6949 20.0748 34.3292C20.0362 37.6026 20.0362 37.6151 19.7278 37.8515C19.3423 38.1627 18.931 38.1502 18.507 37.8266L18.1728 37.5777V32.7984C18.1728 28.4422 18.16 28.0065 17.9544 27.7825C17.6074 27.3842 17.1319 27.322 16.7207 27.6331L16.3737 27.8945L16.348 29.973L16.3095 32.0516H15.2814H14.2533L14.1891 23.9242C14.1248 16.0581 14.112 15.7843 13.8807 15.61C13.4437 15.2989 12.9297 15.3985 12.4414 15.8714C11.9017 16.3942 11.4133 16.4439 11.0021 16.0208C10.6166 15.6225 10.6423 15.2242 11.1178 14.5646C11.5932 13.88 12.557 12.0629 12.904 11.1792C13.7008 9.16287 14.1762 6.52426 14.1891 4.09724C14.1891 2.82772 14.2148 2.61613 14.459 2.31742C14.6132 2.11828 14.8445 1.99382 15.0501 1.99382C15.577 1.99382 27.4768 4.25904 27.6567 4.39595C27.7595 4.48307 27.8109 4.96848 27.8109 6.02641C27.8109 7.38305 27.8366 7.5822 28.068 7.81867C28.4021 8.16717 29.0061 8.17962 29.353 7.84357C29.5844 7.61953 29.6101 7.43284 29.6101 5.8895C29.6101 4.42084 29.5715 4.10968 29.3402 3.66162C28.9161 2.80282 28.5434 2.66592 25.0866 2.00626L21.9638 1.42129L21.9253 0.886097C21.8996 0.587387 21.8096 0.263783 21.7068 0.176659C21.5269 0.00241089 20.3446 -0.0722656 20.1904 0.0895348ZM16.3737 35.4743V37.0923H15.5513C14.8702 37.0923 14.6517 37.1421 14.369 37.3786C13.9449 37.7271 13.9192 38.2623 14.3048 38.6232C14.5361 38.8597 14.7545 38.897 15.834 38.9344C16.8107 38.9717 17.1319 39.0339 17.3375 39.2082C17.813 39.6189 18.417 39.8305 19.0981 39.8305C19.8049 39.8305 20.6787 39.5193 20.9872 39.1708C21.1414 38.9842 21.7325 38.9593 27.3098 38.9593C30.7024 38.9593 33.4653 38.9842 33.4653 39.009C33.4653 39.2331 31.6919 41.8841 31.4349 42.0459C31.1264 42.2451 30.3168 42.2575 21 42.2575C11.8374 42.2575 10.8736 42.2326 10.578 42.0584C10.321 41.8966 8.53474 39.2331 8.53474 39.009C8.53474 38.9842 8.93312 38.9593 9.42145 38.9593C9.89693 38.9593 10.4752 38.897 10.6808 38.8348C11.439 38.5734 11.529 37.6151 10.835 37.279C10.5523 37.1297 9.83267 37.0923 7.24966 37.0923C3.7414 37.0923 3.44583 37.0425 2.71333 36.3704C2.03224 35.7481 1.55676 34.3915 1.87803 34.0181C1.98084 33.8936 3.42013 33.8563 9.19014 33.8563H16.3737V35.4743Z" fill="#F2F2F2"/>
<path d="M22.0155 10.6937L21.707 10.9302L21.6685 15.3238C21.6428 19.1697 21.6042 19.7546 21.4243 19.9413C21.3087 20.0658 21.1159 20.1654 21.0002 20.1654C20.5633 20.1654 20.3834 19.7671 20.332 18.7216C20.2806 17.5392 20.0621 17.1783 19.3939 17.1783C18.7 17.1783 18.5586 17.4645 18.5586 18.8336C18.5586 19.4808 18.6228 20.1778 18.7 20.3769C19.0084 21.1735 20.1007 21.9078 21.0002 21.9078C21.8998 21.9078 22.9921 21.1735 23.3005 20.3769C23.3905 20.1529 23.4419 18.3731 23.4419 15.4358V10.8431L23.1592 10.6564C22.7737 10.395 22.3753 10.4075 22.0155 10.6937Z" fill="#F2F2F2"/>
</svg>
